<svg data-v-423bf9ae="" xmlns="http://www.w3.org/2000/svg" viewBox="0 0 853 90" class="iconLeft"><!----><!----><!----><g data-v-423bf9ae="" id="6e5e027a-7435-4859-9067-2ef870ae6c65" fill="white" transform="matrix(6.066733864221661,0,0,6.066733864221661,103.34314401477434,8.933266612615498)"><path d="M12.97 5.93L12.97 5.93L12.97 5.93Q12.97 6.84 12.78 7.54L12.78 7.54L12.78 7.54Q12.58 8.24 12.22 8.76L12.22 8.76L12.22 8.76Q11.86 9.28 11.36 9.64L11.36 9.64L11.36 9.64Q10.86 10.00 10.24 10.22L10.24 10.22L10.24 10.22Q9.63 10.44 8.91 10.54L8.91 10.54L8.91 10.54Q8.20 10.64 7.43 10.64L7.43 10.64L1.47 10.64L1.47 1.24L7.42 1.24L7.42 1.24Q8.19 1.24 8.90 1.34L8.90 1.34L8.90 1.34Q9.61 1.44 10.23 1.66L10.23 1.66L10.23 1.66Q10.85 1.88 11.35 2.24L11.35 2.24L11.35 2.24Q11.86 2.60 12.22 3.12L12.22 3.12L12.22 3.12Q12.58 3.64 12.78 4.34L12.78 4.34L12.78 4.34Q12.97 5.04 12.97 5.93ZM10.42 5.93L10.42 5.93L10.42 5.93Q10.42 5.26 10.24 4.76L10.24 4.76L10.24 4.76Q10.07 4.26 9.68 3.93L9.68 3.93L9.68 3.93Q9.30 3.61 8.67 3.45L8.67 3.45L8.67 3.45Q8.05 3.29 7.16 3.29L7.16 3.29L4.01 3.29L4.01 8.59L7.16 8.59L7.16 8.59Q8.05 8.59 8.67 8.43L8.67 8.43L8.67 8.43Q9.30 8.27 9.68 7.94L9.68 7.94L9.68 7.94Q10.07 7.61 10.24 7.11L10.24 7.11L10.24 7.11Q10.42 6.61 10.42 5.93ZM23.93 3.37L23.93 3.37L23.93 3.37Q23.82 3.34 23.63 3.28L23.63 3.28L23.63 3.28Q23.43 3.22 23.17 3.16L23.17 3.16L23.17 3.16Q22.91 3.10 22.60 3.06L22.60 3.06L22.60 3.06Q22.29 3.02 21.96 3.02L21.96 3.02L21.96 3.02Q21.28 3.02 20.69 3.19L20.69 3.19L20.69 3.19Q20.10 3.36 19.58 3.63L19.58 3.63L19.58 3.63Q19.07 3.91 18.63 4.26L18.63 4.26L18.63 4.26Q18.19 4.61 17.82 4.98L17.82 4.98L17.82 10.64L15.29 10.64L15.29 1.24L17.82 1.24L17.82 2.77L17.82 2.77Q18.28 2.43 18.76 2.11L18.76 2.11L18.76 2.11Q19.24 1.79 19.77 1.54L19.77 1.54L19.77 1.54Q20.29 1.30 20.87 1.15L20.87 1.15L20.87 1.15Q21.45 1.00 22.10 1.00L22.10 1.00L22.10 1.00Q22.35 1.00 22.60 1.03L22.60 1.03L22.60 1.03Q22.86 1.05 23.10 1.09L23.10 1.09L23.10 1.09Q23.34 1.12 23.56 1.16L23.56 1.16L23.56 1.16Q23.77 1.20 23.93 1.24L23.93 1.24L23.93 3.37ZM36.03 10.64L33.50 10.64L33.50 9.71L33.50 9.71Q33.01 9.98 32.45 10.19L32.45 10.19L32.45 10.19Q31.90 10.39 31.29 10.53L31.29 10.53L31.29 10.53Q30.69 10.68 30.05 10.75L30.05 10.75L30.05 10.75Q29.42 10.82 28.77 10.82L28.77 10.82L28.77 10.82Q28.01 10.82 27.30 10.68L27.30 10.68L27.30 10.68Q26.59 10.53 26.04 10.21L26.04 10.21L26.04 10.21Q25.50 9.89 25.17 9.37L25.17 9.37L25.17 9.37Q24.83 8.85 24.83 8.10L24.83 8.10L24.83 8.10Q24.83 7.15 25.35 6.52L25.35 6.52L25.35 6.52Q25.87 5.89 26.94 5.48L26.94 5.48L26.94 5.48Q28.01 5.08 29.64 4.86L29.64 4.86L29.64 4.86Q31.27 4.64 33.50 4.52L33.50 4.52L33.50 4.32L33.50 4.32Q33.50 4.09 33.37 3.86L33.37 3.86L33.37 3.86Q33.25 3.63 32.93 3.46L32.93 3.46L32.93 3.46Q32.60 3.28 32.04 3.17L32.04 3.17L32.04 3.17Q31.47 3.06 30.60 3.06L30.60 3.06L30.60 3.06Q29.91 3.06 29.23 3.13L29.23 3.13L29.23 3.13Q28.56 3.21 27.94 3.33L27.94 3.33L27.94 3.33Q27.31 3.45 26.75 3.62L26.75 3.62L26.75 3.62Q26.19 3.78 25.73 3.96L25.73 3.96L25.73 1.70L25.73 1.70Q26.21 1.58 26.80 1.46L26.80 1.46L26.80 1.46Q27.40 1.35 28.04 1.26L28.04 1.26L28.04 1.26Q28.68 1.18 29.34 1.12L29.34 1.12L29.34 1.12Q30.00 1.07 30.60 1.07L30.60 1.07L30.60 1.07Q31.78 1.07 32.78 1.27L32.78 1.27L32.78 1.27Q33.78 1.46 34.50 1.87L34.50 1.87L34.50 1.87Q35.22 2.28 35.63 2.91L35.63 2.91L35.63 2.91Q36.03 3.54 36.03 4.41L36.03 4.41L36.03 10.64ZM33.50 7.59L33.50 6.35L33.50 6.35Q32.03 6.41 31.01 6.51L31.01 6.51L31.01 6.51Q29.99 6.61 29.31 6.75L29.31 6.75L29.31 6.75Q28.64 6.88 28.25 7.04L28.25 7.04L28.25 7.04Q27.86 7.20 27.67 7.36L27.67 7.36L27.67 7.36Q27.48 7.53 27.44 7.69L27.44 7.69L27.44 7.69Q27.39 7.85 27.39 7.99L27.39 7.99L27.39 7.99Q27.39 8.16 27.48 8.31L27.48 8.31L27.48 8.31Q27.57 8.46 27.79 8.58L27.79 8.58L27.79 8.58Q28.01 8.70 28.38 8.76L28.38 8.76L28.38 8.76Q28.75 8.83 29.31 8.83L29.31 8.83L29.31 8.83Q29.93 8.83 30.53 8.74L30.53 8.74L30.53 8.74Q31.12 8.64 31.66 8.47L31.66 8.47L31.66 8.47Q32.19 8.31 32.66 8.08L32.66 8.08L32.66 8.08Q33.13 7.85 33.50 7.59L33.50 7.59ZM48.88 3.25L43.37 3.25L43.37 3.25Q42.92 3.25 42.57 3.28L42.57 3.28L42.57 3.28Q42.22 3.32 41.97 3.45L41.97 3.45L41.97 3.45Q41.73 3.58 41.60 3.83L41.60 3.83L41.60 3.83Q41.47 4.09 41.47 4.53L41.47 4.53L41.47 4.88L48.55 4.88L48.55 6.88L41.47 6.88L41.47 10.64L38.93 10.64L38.93 4.32L38.93 4.32Q38.93 3.60 39.15 3.02L39.15 3.02L39.15 3.02Q39.36 2.45 39.87 2.05L39.87 2.05L39.87 2.05Q40.37 1.66 41.21 1.45L41.21 1.45L41.21 1.45Q42.04 1.24 43.29 1.24L43.29 1.24L48.88 1.24L48.88 3.25ZM60.31 3.29L56.32 3.29L56.32 10.64L53.79 10.64L53.79 3.29L49.80 3.29L49.80 1.24L60.31 1.24L60.31 3.29ZM70.64 1.72L70.64 3.89L70.64 3.89Q70.38 3.76 69.94 3.60L69.94 3.60L69.94 3.60Q69.50 3.43 68.95 3.28L68.95 3.28L68.95 3.28Q68.39 3.14 67.74 3.04L67.74 3.04L67.74 3.04Q67.09 2.94 66.41 2.94L66.41 2.94L66.41 2.94Q65.86 2.94 65.48 2.97L65.48 2.97L65.48 2.97Q65.09 3.01 64.83 3.06L64.83 3.06L64.83 3.06Q64.57 3.12 64.41 3.19L64.41 3.19L64.41 3.19Q64.26 3.26 64.18 3.34L64.18 3.34L64.18 3.34Q64.09 3.41 64.07 3.49L64.07 3.49L64.07 3.49Q64.05 3.56 64.05 3.62L64.05 3.62L64.05 3.62Q64.05 3.83 64.25 3.98L64.25 3.98L64.25 3.98Q64.46 4.14 64.81 4.26L64.81 4.26L64.81 4.26Q65.17 4.38 65.64 4.48L65.64 4.48L65.64 4.48Q66.11 4.59 66.64 4.70L66.64 4.70L66.64 4.70Q67.17 4.81 67.73 4.95L67.73 4.95L67.73 4.95Q68.30 5.08 68.83 5.26L68.83 5.26L68.83 5.26Q69.36 5.43 69.83 5.67L69.83 5.67L69.83 5.67Q70.30 5.91 70.66 6.22L70.66 6.22L70.66 6.22Q71.01 6.54 71.22 6.95L71.22 6.95L71.22 6.95Q71.42 7.36 71.42 7.88L71.42 7.88L71.42 7.88Q71.42 8.56 71.18 9.04L71.18 9.04L71.18 9.04Q70.94 9.53 70.54 9.86L70.54 9.86L70.54 9.86Q70.14 10.20 69.62 10.40L69.62 10.40L69.62 10.40Q69.09 10.60 68.51 10.71L68.51 10.71L68.51 10.71Q67.94 10.82 67.34 10.86L67.34 10.86L67.34 10.86Q66.75 10.89 66.22 10.89L66.22 10.89L66.22 10.89Q64.83 10.89 63.64 10.66L63.64 10.66L63.64 10.66Q62.45 10.43 61.54 10.09L61.54 10.09L61.54 7.85L61.54 7.85Q62.48 8.37 63.68 8.66L63.68 8.66L63.68 8.66Q64.88 8.96 66.25 8.96L66.25 8.96L66.25 8.96Q67.05 8.96 67.56 8.87L67.56 8.87L67.56 8.87Q68.07 8.78 68.36 8.65L68.36 8.65L68.36 8.65Q68.65 8.52 68.75 8.36L68.75 8.36L68.75 8.36Q68.85 8.20 68.85 8.06L68.85 8.06L68.85 8.06Q68.85 7.83 68.65 7.67L68.65 7.67L68.65 7.67Q68.44 7.50 68.09 7.37L68.09 7.37L68.09 7.37Q67.73 7.25 67.26 7.14L67.26 7.14L67.26 7.14Q66.79 7.03 66.26 6.93L66.26 6.93L66.26 6.93Q65.73 6.82 65.17 6.70L65.17 6.70L65.17 6.70Q64.61 6.58 64.08 6.41L64.08 6.41L64.08 6.41Q63.55 6.24 63.08 6.02L63.08 6.02L63.08 6.02Q62.60 5.80 62.25 5.49L62.25 5.49L62.25 5.49Q61.89 5.19 61.69 4.79L61.69 4.79L61.69 4.79Q61.48 4.39 61.48 3.86L61.48 3.86L61.48 3.86Q61.48 3.24 61.70 2.79L61.70 2.79L61.70 2.79Q61.92 2.34 62.29 2.02L62.29 2.02L62.29 2.02Q62.67 1.70 63.15 1.50L63.15 1.50L63.15 1.50Q63.64 1.31 64.18 1.20L64.18 1.20L64.18 1.20Q64.72 1.09 65.28 1.05L65.28 1.05L65.28 1.05Q65.83 1.00 66.33 1.00L66.33 1.00L66.33 1.00Q66.88 1.00 67.45 1.06L67.45 1.06L67.45 1.06Q68.03 1.11 68.59 1.21L68.59 1.21L68.59 1.21Q69.15 1.31 69.68 1.44L69.68 1.44L69.68 1.44Q70.20 1.57 70.64 1.72L70.64 1.72ZM85.35 10.64L82.81 10.64L82.81 6.72L76.36 6.72L76.36 10.64L73.82 10.64L73.82 1.24L76.36 1.24L76.36 4.66L82.81 4.66L82.81 1.24L85.35 1.24L85.35 10.64ZM98.79 10.64L96.25 10.64L96.25 9.71L96.25 9.71Q95.76 9.98 95.21 10.19L95.21 10.19L95.21 10.19Q94.65 10.39 94.05 10.53L94.05 10.53L94.05 10.53Q93.45 10.68 92.81 10.75L92.81 10.75L92.81 10.75Q92.17 10.82 91.52 10.82L91.52 10.82L91.52 10.82Q90.76 10.82 90.05 10.68L90.05 10.68L90.05 10.68Q89.35 10.53 88.80 10.21L88.80 10.21L88.80 10.21Q88.25 9.89 87.92 9.37L87.92 9.37L87.92 9.37Q87.59 8.85 87.59 8.10L87.59 8.10L87.59 8.10Q87.59 7.15 88.11 6.52L88.11 6.52L88.11 6.52Q88.63 5.89 89.69 5.48L89.69 5.48L89.69 5.48Q90.76 5.08 92.39 4.86L92.39 4.86L92.39 4.86Q94.02 4.64 96.25 4.52L96.25 4.52L96.25 4.32L96.25 4.32Q96.25 4.09 96.13 3.86L96.13 3.86L96.13 3.86Q96.00 3.63 95.68 3.46L95.68 3.46L95.68 3.46Q95.35 3.28 94.79 3.17L94.79 3.17L94.79 3.17Q94.23 3.06 93.35 3.06L93.35 3.06L93.35 3.06Q92.66 3.06 91.99 3.13L91.99 3.13L91.99 3.13Q91.31 3.21 90.69 3.33L90.69 3.33L90.69 3.33Q90.06 3.45 89.50 3.62L89.50 3.62L89.50 3.62Q88.94 3.78 88.48 3.96L88.48 3.96L88.48 1.70L88.48 1.70Q88.96 1.58 89.56 1.46L89.56 1.46L89.56 1.46Q90.15 1.35 90.79 1.26L90.79 1.26L90.79 1.26Q91.44 1.18 92.09 1.12L92.09 1.12L92.09 1.12Q92.75 1.07 93.35 1.07L93.35 1.07L93.35 1.07Q94.53 1.07 95.53 1.27L95.53 1.27L95.53 1.27Q96.53 1.46 97.25 1.87L97.25 1.87L97.25 1.87Q97.97 2.28 98.38 2.91L98.38 2.91L98.38 2.91Q98.79 3.54 98.79 4.41L98.79 4.41L98.79 10.64ZM96.25 7.59L96.25 6.35L96.25 6.35Q94.79 6.41 93.77 6.51L93.77 6.51L93.77 6.51Q92.74 6.61 92.07 6.75L92.07 6.75L92.07 6.75Q91.39 6.88 91.00 7.04L91.00 7.04L91.00 7.04Q90.62 7.20 90.43 7.36L90.43 7.36L90.43 7.36Q90.23 7.53 90.19 7.69L90.19 7.69L90.19 7.69Q90.15 7.85 90.15 7.99L90.15 7.99L90.15 7.99Q90.15 8.16 90.23 8.31L90.23 8.31L90.23 8.31Q90.32 8.46 90.55 8.58L90.55 8.58L90.55 8.58Q90.77 8.70 91.14 8.76L91.14 8.76L91.14 8.76Q91.51 8.83 92.07 8.83L92.07 8.83L92.07 8.83Q92.69 8.83 93.28 8.74L93.28 8.74L93.28 8.74Q93.88 8.64 94.41 8.47L94.41 8.47L94.41 8.47Q94.94 8.31 95.41 8.08L95.41 8.08L95.41 8.08Q95.88 7.85 96.25 7.59L96.25 7.59ZM110.33 3.37L110.33 3.37L110.33 3.37Q110.22 3.34 110.03 3.28L110.03 3.28L110.03 3.28Q109.83 3.22 109.57 3.16L109.57 3.16L109.57 3.16Q109.31 3.10 109.00 3.06L109.00 3.06L109.00 3.06Q108.69 3.02 108.36 3.02L108.36 3.02L108.36 3.02Q107.68 3.02 107.09 3.19L107.09 3.19L107.09 3.19Q106.50 3.36 105.98 3.63L105.98 3.63L105.98 3.63Q105.47 3.91 105.03 4.26L105.03 4.26L105.03 4.26Q104.59 4.61 104.22 4.98L104.22 4.98L104.22 10.64L101.68 10.64L101.68 1.24L104.22 1.24L104.22 2.77L104.22 2.77Q104.68 2.43 105.16 2.11L105.16 2.11L105.16 2.11Q105.64 1.79 106.17 1.54L106.17 1.54L106.17 1.54Q106.69 1.30 107.27 1.15L107.27 1.15L107.27 1.15Q107.85 1.00 108.50 1.00L108.50 1.00L108.50 1.00Q108.75 1.00 109.00 1.03L109.00 1.03L109.00 1.03Q109.26 1.05 109.50 1.09L109.50 1.09L109.50 1.09Q109.74 1.12 109.96 1.16L109.96 1.16L109.96 1.16Q110.17 1.20 110.33 1.24L110.33 1.24L110.33 3.37ZM123.44 10.64L120.85 10.64L120.85 10.64Q120.78 9.87 120.48 9.29L120.48 9.29L120.48 9.29Q120.18 8.72 119.73 8.30L119.73 8.30L119.73 8.30Q119.27 7.88 118.70 7.61L118.70 7.61L118.70 7.61Q118.13 7.33 117.53 7.17L117.53 7.17L117.53 7.17Q116.93 7.01 116.33 6.95L116.33 6.95L116.33 6.95Q115.73 6.88 115.22 6.88L115.22 6.88L114.47 6.88L114.47 10.64L111.93 10.64L111.93 1.24L114.47 1.24L114.47 4.87L114.99 4.87L114.99 4.87Q115.51 4.87 116.09 4.79L116.09 4.79L116.09 4.79Q116.66 4.70 117.23 4.53L117.23 4.53L117.23 4.53Q117.79 4.35 118.31 4.07L118.31 4.07L118.31 4.07Q118.83 3.79 119.24 3.38L119.24 3.38L119.24 3.38Q119.65 2.98 119.92 2.45L119.92 2.45L119.92 2.45Q120.20 1.92 120.26 1.24L120.26 1.24L122.85 1.24L122.85 1.24Q122.78 1.99 122.55 2.59L122.55 2.59L122.55 2.59Q122.32 3.19 121.98 3.67L121.98 3.67L121.98 3.67Q121.65 4.14 121.23 4.50L121.23 4.50L121.23 4.50Q120.81 4.85 120.37 5.11L120.37 5.11L120.37 5.11Q119.94 5.37 119.50 5.53L119.50 5.53L119.50 5.53Q119.07 5.70 118.69 5.79L118.69 5.79L118.69 5.79Q119.17 5.87 119.69 6.03L119.69 6.03L119.69 6.03Q120.20 6.19 120.71 6.45L120.71 6.45L120.71 6.45Q121.21 6.71 121.68 7.10L121.68 7.10L121.68 7.10Q122.14 7.48 122.51 7.99L122.51 7.99L122.51 7.99Q122.88 8.50 123.12 9.16L123.12 9.16L123.12 9.16Q123.37 9.82 123.44 10.64L123.44 10.64Z"></path></g><!----><g data-v-423bf9ae="" id="6f0ac048-42dc-4e74-852c-6fd01466281e" transform="matrix(1.0541851081233025,0,0,1.0541851081233025,-1.1969925391875051,-1.0993214164614926)" stroke="none" fill="white"><path d="M1.225 81.063c1.694 2.405 5.094 6.144 9.884 6.144 8.724 0 11.203-8.124 11.203-8.124s1.479 8.124 11.25 8.124c8.271 0 11.273-8.124 11.273-8.124s3.74 8.124 11.285 8.124 11.292-8.124 11.292-8.124 3.5 8.124 11.294 8.124c5.144 0 8.406-3.531 10.038-5.937-.362-7.87-1.524-16.546-4.715-25.231a5.073 5.073 0 0 0 .721-2.581 5.12 5.12 0 0 0-4-4.992c-6.874-14.344-14.766-27.213-21.56-35.781a31.482 31.482 0 0 0-7.832 7.392c1.918-3.747 4.32-6.886 6.362-9.197-4.746-5.679-8.849-9.047-11.527-9.047-6.689 0-24.356 21.067-36.85 46.681-2.206.572-3.843 2.559-3.843 4.944 0 .846.225 1.633.588 2.337-3.359 8.69-4.534 17.378-4.863 25.268zM18.38 55.917l3.338-2.505-1.044-3.141 2.623.607-.79-4.919 4.378 2.842-2.406-4.466 2.328 1.621-1.376-4.101 4.12 4.176-1.439-10.452 4.819 7.798-1.339-13.304c.022-.028.195 1.393.217 1.365l5.906 7.44-.075-11.074 5.457 10.036 3.642-13.834 3.684 12.45 5.53-9.531.152 14.722 4.897-9.198.028.039-.364 10.374 3.687-4.807-.207 8.079 2.331-3.089-.58 5.263 2.916-1.688-.898 3.937 2.042-.347-.457 4.706 2.5.417c2.731 7.631 3.908 13.08 3.908 18.661-.612-3.729-1.516-7.67-3.408-10.161l-3.415-6.84-1.344 3.349-1.73-4.113-1.682 1.854h-.001l-.896-4.061-1.341 2.255-1.799-4.207-1.378 3.91a50.842 50.842 0 0 0-.208-.069l-2.115-6.566-2.54 4.845-1.556-5.897-3.101 5.473-.942-8.162-3.097 7.789-4.051-7.783-4.553 8.182.964-7.143-5.409 7.942.625-6.212-4.775 7.727-1.504-2.536-2.099 5.625-1.489-2.512-1.991 5.334-.701-1.181L18 65.583c-1.987 2.536-2.46 4.567-3.092 8.419 0-4.931 1.289-11.386 3.472-18.085z"></path></g><!----></svg>