<svg data-v-423bf9ae="" xmlns="http://www.w3.org/2000/svg" viewBox="0 0 61.50748770725946 60" class="icon"><!----><!----><!----><!----><g data-v-423bf9ae="" id="1bdf5a17-88c6-4f86-9cb5-dd51aaf70835" transform="matrix(0.7027900720822017,0,0,0.7027900720822017,-0.8609179409479033,-1.2882156712770652)" stroke="none" fill="white"><path d="M1.225 81.063c1.694 2.405 5.094 6.144 9.884 6.144 8.724 0 11.203-8.124 11.203-8.124s1.479 8.124 11.25 8.124c8.271 0 11.273-8.124 11.273-8.124s3.74 8.124 11.285 8.124 11.292-8.124 11.292-8.124 3.5 8.124 11.294 8.124c5.144 0 8.406-3.531 10.038-5.937-.362-7.87-1.524-16.546-4.715-25.231a5.073 5.073 0 0 0 .721-2.581 5.12 5.12 0 0 0-4-4.992c-6.874-14.344-14.766-27.213-21.56-35.781a31.482 31.482 0 0 0-7.832 7.392c1.918-3.747 4.32-6.886 6.362-9.197-4.746-5.679-8.849-9.047-11.527-9.047-6.689 0-24.356 21.067-36.85 46.681-2.206.572-3.843 2.559-3.843 4.944 0 .846.225 1.633.588 2.337-3.359 8.69-4.534 17.378-4.863 25.268zM18.38 55.917l3.338-2.505-1.044-3.141 2.623.607-.79-4.919 4.378 2.842-2.406-4.466 2.328 1.621-1.376-4.101 4.12 4.176-1.439-10.452 4.819 7.798-1.339-13.304c.022-.028.195 1.393.217 1.365l5.906 7.44-.075-11.074 5.457 10.036 3.642-13.834 3.684 12.45 5.53-9.531.152 14.722 4.897-9.198.028.039-.364 10.374 3.687-4.807-.207 8.079 2.331-3.089-.58 5.263 2.916-1.688-.898 3.937 2.042-.347-.457 4.706 2.5.417c2.731 7.631 3.908 13.08 3.908 18.661-.612-3.729-1.516-7.67-3.408-10.161l-3.415-6.84-1.344 3.349-1.73-4.113-1.682 1.854h-.001l-.896-4.061-1.341 2.255-1.799-4.207-1.378 3.91a50.842 50.842 0 0 0-.208-.069l-2.115-6.566-2.54 4.845-1.556-5.897-3.101 5.473-.942-8.162-3.097 7.789-4.051-7.783-4.553 8.182.964-7.143-5.409 7.942.625-6.212-4.775 7.727-1.504-2.536-2.099 5.625-1.489-2.512-1.991 5.334-.701-1.181L18 65.583c-1.987 2.536-2.46 4.567-3.092 8.419 0-4.931 1.289-11.386 3.472-18.085z"></path></g><!----></svg>